<svg xmlns="http://www.w3.org/2000/svg" xmlns:xlink="http://www.w3.org/1999/xlink" width="128" zoomAndPan="magnify" viewBox="0 0 96 30.000001" height="40" preserveAspectRatio="xMidYMid meet" version="1.0"><defs><g/><clipPath id="id1"><path d="M 1.546875 7 L 14 7 L 14 23 L 1.546875 23 Z M 1.546875 7 " clip-rule="nonzero"/></clipPath><clipPath id="id2"><path d="M 85 12 L 94.449219 12 L 94.449219 25 L 85 25 Z M 85 12 " clip-rule="nonzero"/></clipPath></defs><g clip-path="url(#id1)"><g fill="#d20c57" fill-opacity="1"><g transform="translate(1.535907, 19.374429)"><g><path d="M 3.640625 2.40625 L 3.015625 1.46875 C 3.035156 1.425781 3.066406 1.375 3.109375 1.3125 C 3.160156 1.257812 3.257812 1.15625 3.40625 1 C 3.5625 0.851562 3.707031 0.722656 3.84375 0.609375 C 3.988281 0.492188 4.148438 0.390625 4.328125 0.296875 C 4.515625 0.203125 4.6875 0.15625 4.84375 0.15625 L 4.84375 0.09375 C 3.488281 -0.164062 2.394531 -0.832031 1.5625 -1.90625 C 0.738281 -2.988281 0.328125 -4.269531 0.328125 -5.75 C 0.328125 -7.425781 0.882812 -8.835938 2 -9.984375 C 3.113281 -11.128906 4.460938 -11.703125 6.046875 -11.703125 C 7.648438 -11.703125 9.003906 -11.128906 10.109375 -9.984375 C 11.210938 -8.835938 11.765625 -7.425781 11.765625 -5.75 C 11.765625 -4.382812 11.394531 -3.179688 10.65625 -2.140625 C 9.925781 -1.097656 8.960938 -0.398438 7.765625 -0.046875 L 7.765625 0.015625 C 7.816406 0.015625 8.0625 0.0546875 8.5 0.140625 C 8.9375 0.234375 9.285156 0.28125 9.546875 0.28125 C 9.898438 0.28125 10.21875 0.21875 10.5 0.09375 C 10.789062 -0.03125 10.992188 -0.15625 11.109375 -0.28125 L 11.28125 -0.46875 L 12.09375 1.296875 C 12.070312 1.335938 12.039062 1.394531 12 1.46875 C 11.957031 1.539062 11.863281 1.664062 11.71875 1.84375 C 11.570312 2.019531 11.40625 2.175781 11.21875 2.3125 C 11.039062 2.445312 10.800781 2.570312 10.5 2.6875 C 10.195312 2.800781 9.875 2.859375 9.53125 2.859375 C 8.96875 2.859375 8.273438 2.675781 7.453125 2.3125 C 6.640625 1.945312 5.9375 1.765625 5.34375 1.765625 C 5.007812 1.765625 4.703125 1.816406 4.421875 1.921875 C 4.140625 2.035156 3.9375 2.148438 3.8125 2.265625 Z M 3.15625 -5.75 C 3.15625 -5.3125 3.203125 -4.898438 3.296875 -4.515625 C 3.398438 -4.128906 3.5625 -3.773438 3.78125 -3.453125 C 4 -3.140625 4.300781 -2.890625 4.6875 -2.703125 C 5.070312 -2.523438 5.523438 -2.4375 6.046875 -2.4375 C 7.023438 -2.4375 7.75 -2.75 8.21875 -3.375 C 8.695312 -4.007812 8.9375 -4.800781 8.9375 -5.75 C 8.9375 -6.6875 8.691406 -7.472656 8.203125 -8.109375 C 7.722656 -8.753906 7.003906 -9.078125 6.046875 -9.078125 C 5.097656 -9.078125 4.378906 -8.753906 3.890625 -8.109375 C 3.398438 -7.472656 3.15625 -6.6875 3.15625 -5.75 Z M 3.15625 -5.75 "/></g></g></g></g><g fill="#d20c57" fill-opacity="1"><g transform="translate(13.61585, 19.374429)"><g><path d="M 1.328125 -0.890625 C 0.660156 -1.617188 0.328125 -2.507812 0.328125 -3.5625 C 0.328125 -4.625 0.660156 -5.519531 1.328125 -6.25 C 1.992188 -6.988281 2.84375 -7.359375 3.875 -7.359375 C 4.820312 -7.359375 5.601562 -7.0625 6.21875 -6.46875 L 6.21875 -7.15625 L 8.6875 -7.15625 L 8.6875 0 L 6.25 0 L 6.25 -0.8125 L 6.21875 -0.8125 C 5.601562 -0.132812 4.820312 0.203125 3.875 0.203125 C 2.84375 0.203125 1.992188 -0.160156 1.328125 -0.890625 Z M 3.421875 -4.78125 C 3.097656 -4.46875 2.9375 -4.0625 2.9375 -3.5625 C 2.9375 -3.070312 3.085938 -2.671875 3.390625 -2.359375 C 3.703125 -2.046875 4.109375 -1.890625 4.609375 -1.890625 C 5.097656 -1.890625 5.492188 -2.046875 5.796875 -2.359375 C 6.109375 -2.679688 6.265625 -3.082031 6.265625 -3.5625 C 6.265625 -4.0625 6.101562 -4.46875 5.78125 -4.78125 C 5.46875 -5.09375 5.078125 -5.25 4.609375 -5.25 C 4.140625 -5.25 3.742188 -5.09375 3.421875 -4.78125 Z M 3.421875 -4.78125 "/></g></g></g><g fill="#d20c57" fill-opacity="1"><g transform="translate(23.132118, 19.374429)"><g><path d="M 1.25 -7.15625 L 1.25 -9.8125 L 3.71875 -9.8125 L 3.71875 -7.15625 L 5.21875 -7.15625 L 5.21875 -5.265625 L 3.71875 -5.265625 L 3.71875 -3 C 3.71875 -2.332031 3.90625 -2 4.28125 -2 C 4.375 -2 4.46875 -2.019531 4.5625 -2.0625 C 4.664062 -2.101562 4.75 -2.140625 4.8125 -2.171875 L 4.890625 -2.234375 L 5.5 -0.234375 C 4.96875 0.0546875 4.363281 0.203125 3.6875 0.203125 C 3.226562 0.203125 2.832031 0.125 2.5 -0.03125 C 2.164062 -0.195312 1.910156 -0.414062 1.734375 -0.6875 C 1.566406 -0.957031 1.441406 -1.242188 1.359375 -1.546875 C 1.285156 -1.847656 1.25 -2.171875 1.25 -2.515625 L 1.25 -5.265625 L 0.21875 -5.265625 L 0.21875 -7.15625 Z M 1.25 -7.15625 "/></g></g></g><g fill="#d20c57" fill-opacity="1"><g transform="translate(28.635665, 19.374429)"><g><path d="M 1.328125 -0.890625 C 0.660156 -1.617188 0.328125 -2.507812 0.328125 -3.5625 C 0.328125 -4.625 0.660156 -5.519531 1.328125 -6.25 C 1.992188 -6.988281 2.84375 -7.359375 3.875 -7.359375 C 4.820312 -7.359375 5.601562 -7.0625 6.21875 -6.46875 L 6.21875 -7.15625 L 8.6875 -7.15625 L 8.6875 0 L 6.25 0 L 6.25 -0.8125 L 6.21875 -0.8125 C 5.601562 -0.132812 4.820312 0.203125 3.875 0.203125 C 2.84375 0.203125 1.992188 -0.160156 1.328125 -0.890625 Z M 3.421875 -4.78125 C 3.097656 -4.46875 2.9375 -4.0625 2.9375 -3.5625 C 2.9375 -3.070312 3.085938 -2.671875 3.390625 -2.359375 C 3.703125 -2.046875 4.109375 -1.890625 4.609375 -1.890625 C 5.097656 -1.890625 5.492188 -2.046875 5.796875 -2.359375 C 6.109375 -2.679688 6.265625 -3.082031 6.265625 -3.5625 C 6.265625 -4.0625 6.101562 -4.46875 5.78125 -4.78125 C 5.46875 -5.09375 5.078125 -5.25 4.609375 -5.25 C 4.140625 -5.25 3.742188 -5.09375 3.421875 -4.78125 Z M 3.421875 -4.78125 "/></g></g></g><g fill="#d20c57" fill-opacity="1"><g transform="translate(38.151933, 19.374429)"><g><path d="M 0.84375 0 L 0.84375 -7.15625 L 3.296875 -7.15625 L 3.296875 -6.125 L 3.328125 -6.125 C 3.347656 -6.15625 3.378906 -6.195312 3.421875 -6.25 C 3.460938 -6.3125 3.550781 -6.410156 3.6875 -6.546875 C 3.832031 -6.691406 3.984375 -6.816406 4.140625 -6.921875 C 4.296875 -7.035156 4.5 -7.132812 4.75 -7.21875 C 5 -7.3125 5.253906 -7.359375 5.515625 -7.359375 C 5.785156 -7.359375 6.050781 -7.320312 6.3125 -7.25 C 6.570312 -7.175781 6.765625 -7.101562 6.890625 -7.03125 L 7.078125 -6.90625 L 6.046875 -4.828125 C 5.742188 -5.085938 5.316406 -5.21875 4.765625 -5.21875 C 4.472656 -5.21875 4.21875 -5.148438 4 -5.015625 C 3.78125 -4.890625 3.628906 -4.734375 3.546875 -4.546875 C 3.460938 -4.359375 3.398438 -4.195312 3.359375 -4.0625 C 3.316406 -3.9375 3.296875 -3.835938 3.296875 -3.765625 L 3.296875 0 Z M 0.84375 0 "/></g></g></g><g fill="#545454" fill-opacity="1"><g transform="translate(44.916797, 20.776436)"><g><path d="M 10.375 -16.09375 L 10.375 -12.875 L 4.84375 -12.875 L 4.84375 -9.6875 L 10.140625 -9.6875 L 10.140625 -6.453125 L 4.84375 -6.453125 L 4.84375 -3.21875 L 10.375 -3.21875 L 10.375 0 L 1.171875 0 L 1.171875 -16.09375 Z M 10.375 -16.09375 "/></g></g></g><g fill="#545454" fill-opacity="1"><g transform="translate(55.830963, 20.31642)"><g><path d="M 5.265625 -12.140625 C 5.910156 -12.140625 6.539062 -12.046875 7.15625 -11.859375 C 7.769531 -11.671875 8.226562 -11.484375 8.53125 -11.296875 L 8.96875 -11.015625 L 7.859375 -8.84375 C 7.773438 -8.90625 7.65625 -8.976562 7.5 -9.0625 C 7.34375 -9.15625 7.050781 -9.28125 6.625 -9.4375 C 6.207031 -9.59375 5.816406 -9.671875 5.453125 -9.671875 C 4.992188 -9.671875 4.640625 -9.570312 4.390625 -9.375 C 4.148438 -9.1875 4.03125 -8.925781 4.03125 -8.59375 C 4.03125 -8.4375 4.085938 -8.285156 4.203125 -8.140625 C 4.316406 -8.003906 4.515625 -7.851562 4.796875 -7.6875 C 5.078125 -7.53125 5.320312 -7.40625 5.53125 -7.3125 C 5.75 -7.21875 6.078125 -7.070312 6.515625 -6.875 C 7.285156 -6.550781 7.941406 -6.109375 8.484375 -5.546875 C 9.035156 -4.984375 9.3125 -4.34375 9.3125 -3.625 C 9.3125 -2.945312 9.1875 -2.347656 8.9375 -1.828125 C 8.695312 -1.316406 8.359375 -0.914062 7.921875 -0.625 C 7.492188 -0.34375 7.019531 -0.132812 6.5 0 C 5.976562 0.144531 5.414062 0.21875 4.8125 0.21875 C 4.289062 0.21875 3.78125 0.164062 3.28125 0.0625 C 2.78125 -0.0390625 2.359375 -0.171875 2.015625 -0.328125 C 1.679688 -0.492188 1.378906 -0.65625 1.109375 -0.8125 C 0.835938 -0.96875 0.640625 -1.097656 0.515625 -1.203125 L 0.328125 -1.359375 L 1.6875 -3.640625 C 1.800781 -3.546875 1.957031 -3.421875 2.15625 -3.265625 C 2.363281 -3.117188 2.722656 -2.921875 3.234375 -2.671875 C 3.753906 -2.421875 4.210938 -2.296875 4.609375 -2.296875 C 5.753906 -2.296875 6.328125 -2.6875 6.328125 -3.46875 C 6.328125 -3.632812 6.285156 -3.785156 6.203125 -3.921875 C 6.117188 -4.066406 5.972656 -4.207031 5.765625 -4.34375 C 5.566406 -4.476562 5.382812 -4.585938 5.21875 -4.671875 C 5.0625 -4.753906 4.800781 -4.878906 4.4375 -5.046875 C 4.082031 -5.210938 3.816406 -5.34375 3.640625 -5.4375 C 2.921875 -5.789062 2.363281 -6.234375 1.96875 -6.765625 C 1.570312 -7.304688 1.375 -7.882812 1.375 -8.5 C 1.375 -9.570312 1.769531 -10.445312 2.5625 -11.125 C 3.351562 -11.800781 4.253906 -12.140625 5.265625 -12.140625 Z M 5.265625 -12.140625 "/></g></g></g><g fill="#545454" fill-opacity="1"><g transform="translate(65.540097, 20.31642)"><g><path d="M 0.875 0 L 0.875 -12.4375 L 3.421875 -12.4375 L 3.421875 -6.640625 L 3.453125 -6.640625 C 4.117188 -7.296875 4.828125 -7.625 5.578125 -7.625 C 5.941406 -7.625 6.304688 -7.578125 6.671875 -7.484375 C 7.035156 -7.390625 7.378906 -7.238281 7.703125 -7.03125 C 8.035156 -6.832031 8.304688 -6.546875 8.515625 -6.171875 C 8.722656 -5.804688 8.828125 -5.378906 8.828125 -4.890625 L 8.828125 0 L 6.265625 0 L 6.265625 -4.1875 C 6.265625 -4.570312 6.140625 -4.910156 5.890625 -5.203125 C 5.648438 -5.492188 5.332031 -5.640625 4.9375 -5.640625 C 4.550781 -5.640625 4.203125 -5.488281 3.890625 -5.1875 C 3.578125 -4.882812 3.421875 -4.550781 3.421875 -4.1875 L 3.421875 0 Z M 0.875 0 "/></g></g></g><g fill="#545454" fill-opacity="1"><g transform="translate(75.090295, 20.31642)"><g><path d="M 1.5625 -0.875 C 0.738281 -1.613281 0.328125 -2.554688 0.328125 -3.703125 C 0.328125 -4.847656 0.753906 -5.785156 1.609375 -6.515625 C 2.472656 -7.253906 3.535156 -7.625 4.796875 -7.625 C 6.035156 -7.625 7.082031 -7.253906 7.9375 -6.515625 C 8.789062 -5.773438 9.21875 -4.835938 9.21875 -3.703125 C 9.21875 -2.566406 8.800781 -1.628906 7.96875 -0.890625 C 7.132812 -0.148438 6.078125 0.21875 4.796875 0.21875 C 3.460938 0.21875 2.382812 -0.144531 1.5625 -0.875 Z M 3.546875 -4.953125 C 3.210938 -4.628906 3.046875 -4.210938 3.046875 -3.703125 C 3.046875 -3.191406 3.203125 -2.773438 3.515625 -2.453125 C 3.835938 -2.128906 4.257812 -1.96875 4.78125 -1.96875 C 5.28125 -1.96875 5.691406 -2.128906 6.015625 -2.453125 C 6.335938 -2.785156 6.5 -3.203125 6.5 -3.703125 C 6.5 -4.210938 6.332031 -4.628906 6 -4.953125 C 5.664062 -5.285156 5.257812 -5.453125 4.78125 -5.453125 C 4.289062 -5.453125 3.878906 -5.285156 3.546875 -4.953125 Z M 3.546875 -4.953125 "/></g></g></g><g clip-path="url(#id2)"><g fill="#545454" fill-opacity="1"><g transform="translate(84.640493, 20.31642)"><g><path d="M 8.5 -6.484375 C 9.195312 -5.734375 9.546875 -4.804688 9.546875 -3.703125 C 9.546875 -2.609375 9.195312 -1.679688 8.5 -0.921875 C 7.800781 -0.160156 6.921875 0.21875 5.859375 0.21875 C 4.867188 0.21875 4.054688 -0.0859375 3.421875 -0.703125 L 3.421875 3.765625 L 0.875 3.765625 L 0.875 -7.421875 L 3.390625 -7.421875 L 3.390625 -6.578125 L 3.421875 -6.578125 C 4.054688 -7.273438 4.867188 -7.625 5.859375 -7.625 C 6.921875 -7.625 7.800781 -7.242188 8.5 -6.484375 Z M 6.328125 -2.453125 C 6.660156 -2.785156 6.828125 -3.207031 6.828125 -3.71875 C 6.828125 -4.226562 6.664062 -4.644531 6.34375 -4.96875 C 6.03125 -5.289062 5.613281 -5.453125 5.09375 -5.453125 C 4.59375 -5.453125 4.179688 -5.285156 3.859375 -4.953125 C 3.535156 -4.628906 3.375 -4.21875 3.375 -3.71875 C 3.375 -3.207031 3.535156 -2.785156 3.859375 -2.453125 C 4.191406 -2.128906 4.601562 -1.96875 5.09375 -1.96875 C 5.582031 -1.96875 5.992188 -2.128906 6.328125 -2.453125 Z M 6.328125 -2.453125 "/></g></g></g></g></svg>