<svg xmlns="http://www.w3.org/2000/svg" xmlns:xlink="http://www.w3.org/1999/xlink" width="118" zoomAndPan="magnify" viewBox="0 0 88.5 30.000001" height="40" preserveAspectRatio="xMidYMid meet" version="1.0"><defs><g/><clipPath id="id1"><path d="M 1.183594 7 L 13 7 L 13 22 L 1.183594 22 Z M 1.183594 7 " clip-rule="nonzero"/></clipPath><clipPath id="id2"><path d="M 79 11 L 86.832031 11 L 86.832031 23 L 79 23 Z M 79 11 " clip-rule="nonzero"/></clipPath></defs><g clip-path="url(#id1)"><g fill="#d20c57" fill-opacity="1"><g transform="translate(0.997769, 19.029044)"><g><path d="M 3.546875 2.34375 L 2.921875 1.421875 C 2.953125 1.390625 2.988281 1.34375 3.03125 1.28125 C 3.082031 1.226562 3.179688 1.128906 3.328125 0.984375 C 3.472656 0.835938 3.613281 0.707031 3.75 0.59375 C 3.882812 0.476562 4.039062 0.375 4.21875 0.28125 C 4.394531 0.195312 4.5625 0.15625 4.71875 0.15625 L 4.71875 0.09375 C 3.394531 -0.15625 2.328125 -0.804688 1.515625 -1.859375 C 0.710938 -2.910156 0.3125 -4.15625 0.3125 -5.59375 C 0.3125 -7.226562 0.851562 -8.601562 1.9375 -9.71875 C 3.019531 -10.832031 4.335938 -11.390625 5.890625 -11.390625 C 7.441406 -11.390625 8.753906 -10.832031 9.828125 -9.71875 C 10.910156 -8.601562 11.453125 -7.226562 11.453125 -5.59375 C 11.453125 -4.269531 11.09375 -3.097656 10.375 -2.078125 C 9.65625 -1.066406 8.710938 -0.390625 7.546875 -0.046875 L 7.546875 0.015625 C 7.609375 0.015625 7.847656 0.0546875 8.265625 0.140625 C 8.691406 0.222656 9.035156 0.265625 9.296875 0.265625 C 9.640625 0.265625 9.945312 0.203125 10.21875 0.078125 C 10.5 -0.0351562 10.695312 -0.148438 10.8125 -0.265625 L 10.96875 -0.46875 L 11.765625 1.265625 C 11.753906 1.304688 11.726562 1.359375 11.6875 1.421875 C 11.644531 1.492188 11.550781 1.613281 11.40625 1.78125 C 11.257812 1.957031 11.097656 2.113281 10.921875 2.25 C 10.742188 2.382812 10.507812 2.503906 10.21875 2.609375 C 9.925781 2.722656 9.613281 2.78125 9.28125 2.78125 C 8.726562 2.78125 8.050781 2.601562 7.25 2.25 C 6.457031 1.894531 5.769531 1.71875 5.1875 1.71875 C 4.875 1.71875 4.578125 1.769531 4.296875 1.875 C 4.023438 1.976562 3.832031 2.085938 3.71875 2.203125 Z M 3.0625 -5.59375 C 3.0625 -5.164062 3.109375 -4.765625 3.203125 -4.390625 C 3.304688 -4.015625 3.460938 -3.671875 3.671875 -3.359375 C 3.890625 -3.054688 4.1875 -2.816406 4.5625 -2.640625 C 4.9375 -2.460938 5.378906 -2.375 5.890625 -2.375 C 6.835938 -2.375 7.539062 -2.679688 8 -3.296875 C 8.457031 -3.910156 8.6875 -4.675781 8.6875 -5.59375 C 8.6875 -6.507812 8.453125 -7.273438 7.984375 -7.890625 C 7.515625 -8.515625 6.816406 -8.828125 5.890625 -8.828125 C 4.960938 -8.828125 4.257812 -8.515625 3.78125 -7.890625 C 3.300781 -7.265625 3.0625 -6.5 3.0625 -5.59375 Z M 3.0625 -5.59375 "/></g></g></g></g><g fill="#d20c57" fill-opacity="1"><g transform="translate(12.747524, 19.029044)"><g><path d="M 1.28125 -0.859375 C 0.632812 -1.566406 0.3125 -2.4375 0.3125 -3.46875 C 0.3125 -4.5 0.632812 -5.367188 1.28125 -6.078125 C 1.9375 -6.796875 2.765625 -7.15625 3.765625 -7.15625 C 4.691406 -7.15625 5.453125 -6.867188 6.046875 -6.296875 L 6.046875 -6.953125 L 8.453125 -6.953125 L 8.453125 0 L 6.078125 0 L 6.078125 -0.78125 L 6.046875 -0.78125 C 5.453125 -0.125 4.691406 0.203125 3.765625 0.203125 C 2.765625 0.203125 1.9375 -0.148438 1.28125 -0.859375 Z M 3.328125 -4.640625 C 3.015625 -4.335938 2.859375 -3.945312 2.859375 -3.46875 C 2.859375 -2.988281 3.003906 -2.597656 3.296875 -2.296875 C 3.597656 -1.992188 3.992188 -1.84375 4.484375 -1.84375 C 4.953125 -1.84375 5.335938 -1.992188 5.640625 -2.296875 C 5.953125 -2.609375 6.109375 -3 6.109375 -3.46875 C 6.109375 -3.945312 5.953125 -4.335938 5.640625 -4.640625 C 5.328125 -4.953125 4.941406 -5.109375 4.484375 -5.109375 C 4.023438 -5.109375 3.640625 -4.953125 3.328125 -4.640625 Z M 3.328125 -4.640625 "/></g></g></g><g fill="#d20c57" fill-opacity="1"><g transform="translate(22.003678, 19.029044)"><g><path d="M 1.21875 -6.953125 L 1.21875 -9.546875 L 3.625 -9.546875 L 3.625 -6.953125 L 5.078125 -6.953125 L 5.078125 -5.125 L 3.625 -5.125 L 3.625 -2.921875 C 3.625 -2.273438 3.800781 -1.953125 4.15625 -1.953125 C 4.25 -1.953125 4.34375 -1.96875 4.4375 -2 C 4.539062 -2.039062 4.617188 -2.078125 4.671875 -2.109375 L 4.765625 -2.171875 L 5.359375 -0.234375 C 4.835938 0.0546875 4.25 0.203125 3.59375 0.203125 C 3.144531 0.203125 2.753906 0.125 2.421875 -0.03125 C 2.097656 -0.1875 1.851562 -0.398438 1.6875 -0.671875 C 1.519531 -0.941406 1.398438 -1.222656 1.328125 -1.515625 C 1.253906 -1.804688 1.21875 -2.117188 1.21875 -2.453125 L 1.21875 -5.125 L 0.21875 -5.125 L 0.21875 -6.953125 Z M 1.21875 -6.953125 "/></g></g></g><g fill="#d20c57" fill-opacity="1"><g transform="translate(27.356797, 19.029044)"><g><path d="M 1.28125 -0.859375 C 0.632812 -1.566406 0.3125 -2.4375 0.3125 -3.46875 C 0.3125 -4.5 0.632812 -5.367188 1.28125 -6.078125 C 1.9375 -6.796875 2.765625 -7.15625 3.765625 -7.15625 C 4.691406 -7.15625 5.453125 -6.867188 6.046875 -6.296875 L 6.046875 -6.953125 L 8.453125 -6.953125 L 8.453125 0 L 6.078125 0 L 6.078125 -0.78125 L 6.046875 -0.78125 C 5.453125 -0.125 4.691406 0.203125 3.765625 0.203125 C 2.765625 0.203125 1.9375 -0.148438 1.28125 -0.859375 Z M 3.328125 -4.640625 C 3.015625 -4.335938 2.859375 -3.945312 2.859375 -3.46875 C 2.859375 -2.988281 3.003906 -2.597656 3.296875 -2.296875 C 3.597656 -1.992188 3.992188 -1.84375 4.484375 -1.84375 C 4.953125 -1.84375 5.335938 -1.992188 5.640625 -2.296875 C 5.953125 -2.609375 6.109375 -3 6.109375 -3.46875 C 6.109375 -3.945312 5.953125 -4.335938 5.640625 -4.640625 C 5.328125 -4.953125 4.941406 -5.109375 4.484375 -5.109375 C 4.023438 -5.109375 3.640625 -4.953125 3.328125 -4.640625 Z M 3.328125 -4.640625 "/></g></g></g><g fill="#d20c57" fill-opacity="1"><g transform="translate(36.612951, 19.029044)"><g><path d="M 0.8125 0 L 0.8125 -6.953125 L 3.21875 -6.953125 L 3.21875 -5.953125 L 3.234375 -5.953125 C 3.253906 -5.992188 3.285156 -6.039062 3.328125 -6.09375 C 3.367188 -6.144531 3.457031 -6.238281 3.59375 -6.375 C 3.726562 -6.507812 3.875 -6.628906 4.03125 -6.734375 C 4.1875 -6.847656 4.382812 -6.945312 4.625 -7.03125 C 4.863281 -7.113281 5.113281 -7.15625 5.375 -7.15625 C 5.632812 -7.15625 5.890625 -7.117188 6.140625 -7.046875 C 6.398438 -6.972656 6.585938 -6.898438 6.703125 -6.828125 L 6.890625 -6.734375 L 5.890625 -4.6875 C 5.585938 -4.945312 5.171875 -5.078125 4.640625 -5.078125 C 4.347656 -5.078125 4.097656 -5.007812 3.890625 -4.875 C 3.679688 -4.75 3.535156 -4.597656 3.453125 -4.421875 C 3.367188 -4.242188 3.304688 -4.085938 3.265625 -3.953125 C 3.234375 -3.828125 3.21875 -3.726562 3.21875 -3.65625 L 3.21875 0 Z M 0.8125 0 "/></g></g></g><g fill="#545454" fill-opacity="1"><g transform="translate(43.361909, 19.029044)"><g><path d="M 7.21875 -11.1875 L 7.21875 -8.953125 L 3.359375 -8.953125 L 3.359375 -6.734375 L 7.046875 -6.734375 L 7.046875 -4.484375 L 3.359375 -4.484375 L 3.359375 -2.234375 L 7.21875 -2.234375 L 7.21875 0 L 0.8125 0 L 0.8125 -11.1875 Z M 7.21875 -11.1875 "/></g></g></g><g fill="#545454" fill-opacity="1"><g transform="translate(51.222183, 19.029044)"><g><path d="M 4.9375 -11.390625 C 5.539062 -11.390625 6.128906 -11.300781 6.703125 -11.125 C 7.285156 -10.945312 7.71875 -10.773438 8 -10.609375 L 8.40625 -10.328125 L 7.375 -8.296875 C 7.289062 -8.347656 7.175781 -8.414062 7.03125 -8.5 C 6.894531 -8.59375 6.625 -8.710938 6.21875 -8.859375 C 5.820312 -9.003906 5.453125 -9.078125 5.109375 -9.078125 C 4.679688 -9.078125 4.351562 -8.984375 4.125 -8.796875 C 3.894531 -8.617188 3.78125 -8.375 3.78125 -8.0625 C 3.78125 -7.914062 3.832031 -7.773438 3.9375 -7.640625 C 4.050781 -7.515625 4.238281 -7.375 4.5 -7.21875 C 4.757812 -7.070312 4.988281 -6.953125 5.1875 -6.859375 C 5.394531 -6.773438 5.703125 -6.640625 6.109375 -6.453125 C 6.835938 -6.148438 7.457031 -5.734375 7.96875 -5.203125 C 8.476562 -4.671875 8.734375 -4.070312 8.734375 -3.40625 C 8.734375 -2.757812 8.617188 -2.195312 8.390625 -1.71875 C 8.160156 -1.238281 7.84375 -0.863281 7.4375 -0.59375 C 7.03125 -0.320312 6.582031 -0.125 6.09375 0 C 5.613281 0.132812 5.085938 0.203125 4.515625 0.203125 C 4.023438 0.203125 3.546875 0.148438 3.078125 0.046875 C 2.609375 -0.046875 2.210938 -0.164062 1.890625 -0.3125 C 1.578125 -0.46875 1.296875 -0.613281 1.046875 -0.75 C 0.796875 -0.894531 0.609375 -1.019531 0.484375 -1.125 L 0.3125 -1.28125 L 1.59375 -3.421875 C 1.695312 -3.328125 1.84375 -3.207031 2.03125 -3.0625 C 2.21875 -2.925781 2.550781 -2.738281 3.03125 -2.5 C 3.519531 -2.269531 3.953125 -2.15625 4.328125 -2.15625 C 5.398438 -2.15625 5.9375 -2.519531 5.9375 -3.25 C 5.9375 -3.40625 5.894531 -3.546875 5.8125 -3.671875 C 5.738281 -3.804688 5.601562 -3.9375 5.40625 -4.0625 C 5.21875 -4.195312 5.046875 -4.300781 4.890625 -4.375 C 4.742188 -4.457031 4.5 -4.578125 4.15625 -4.734375 C 3.820312 -4.898438 3.578125 -5.019531 3.421875 -5.09375 C 2.742188 -5.425781 2.21875 -5.84375 1.84375 -6.34375 C 1.46875 -6.851562 1.28125 -7.394531 1.28125 -7.96875 C 1.28125 -8.976562 1.648438 -9.800781 2.390625 -10.4375 C 3.140625 -11.070312 3.988281 -11.390625 4.9375 -11.390625 Z M 4.9375 -11.390625 "/></g></g></g><g fill="#545454" fill-opacity="1"><g transform="translate(60.329262, 19.029044)"><g><path d="M 0.8125 0 L 0.8125 -11.65625 L 3.21875 -11.65625 L 3.21875 -6.21875 L 3.234375 -6.21875 C 3.859375 -6.84375 4.523438 -7.15625 5.234375 -7.15625 C 5.578125 -7.15625 5.914062 -7.109375 6.25 -7.015625 C 6.59375 -6.929688 6.921875 -6.789062 7.234375 -6.59375 C 7.546875 -6.40625 7.796875 -6.140625 7.984375 -5.796875 C 8.179688 -5.453125 8.28125 -5.046875 8.28125 -4.578125 L 8.28125 0 L 5.890625 0 L 5.890625 -3.9375 C 5.890625 -4.289062 5.769531 -4.601562 5.53125 -4.875 C 5.300781 -5.15625 5.003906 -5.296875 4.640625 -5.296875 C 4.273438 -5.296875 3.945312 -5.15625 3.65625 -4.875 C 3.363281 -4.59375 3.21875 -4.28125 3.21875 -3.9375 L 3.21875 0 Z M 0.8125 0 "/></g></g></g><g fill="#545454" fill-opacity="1"><g transform="translate(69.287266, 19.029044)"><g><path d="M 1.46875 -0.828125 C 0.695312 -1.515625 0.3125 -2.394531 0.3125 -3.46875 C 0.3125 -4.539062 0.710938 -5.421875 1.515625 -6.109375 C 2.316406 -6.804688 3.3125 -7.15625 4.5 -7.15625 C 5.664062 -7.15625 6.648438 -6.804688 7.453125 -6.109375 C 8.253906 -5.421875 8.65625 -4.539062 8.65625 -3.46875 C 8.65625 -2.40625 8.265625 -1.523438 7.484375 -0.828125 C 6.703125 -0.140625 5.707031 0.203125 4.5 0.203125 C 3.25 0.203125 2.238281 -0.140625 1.46875 -0.828125 Z M 3.328125 -4.640625 C 3.015625 -4.335938 2.859375 -3.945312 2.859375 -3.46875 C 2.859375 -2.988281 3.003906 -2.597656 3.296875 -2.296875 C 3.597656 -1.992188 3.992188 -1.84375 4.484375 -1.84375 C 4.953125 -1.84375 5.335938 -1.992188 5.640625 -2.296875 C 5.953125 -2.609375 6.109375 -3 6.109375 -3.46875 C 6.109375 -3.945312 5.953125 -4.335938 5.640625 -4.640625 C 5.328125 -4.953125 4.941406 -5.109375 4.484375 -5.109375 C 4.023438 -5.109375 3.640625 -4.953125 3.328125 -4.640625 Z M 3.328125 -4.640625 "/></g></g></g><g clip-path="url(#id2)"><g fill="#545454" fill-opacity="1"><g transform="translate(78.24527, 19.029044)"><g><path d="M 7.96875 -6.09375 C 8.625 -5.382812 8.953125 -4.515625 8.953125 -3.484375 C 8.953125 -2.453125 8.625 -1.578125 7.96875 -0.859375 C 7.320312 -0.148438 6.5 0.203125 5.5 0.203125 C 4.570312 0.203125 3.8125 -0.0859375 3.21875 -0.671875 L 3.21875 3.53125 L 0.8125 3.53125 L 0.8125 -6.953125 L 3.1875 -6.953125 L 3.1875 -6.171875 L 3.21875 -6.171875 C 3.8125 -6.828125 4.570312 -7.15625 5.5 -7.15625 C 6.5 -7.15625 7.320312 -6.800781 7.96875 -6.09375 Z M 5.9375 -2.296875 C 6.25 -2.609375 6.40625 -3.003906 6.40625 -3.484375 C 6.40625 -3.960938 6.253906 -4.351562 5.953125 -4.65625 C 5.648438 -4.957031 5.257812 -5.109375 4.78125 -5.109375 C 4.300781 -5.109375 3.910156 -4.953125 3.609375 -4.640625 C 3.304688 -4.335938 3.15625 -3.953125 3.15625 -3.484375 C 3.15625 -3.003906 3.3125 -2.609375 3.625 -2.296875 C 3.9375 -1.992188 4.320312 -1.84375 4.78125 -1.84375 C 5.238281 -1.84375 5.625 -1.992188 5.9375 -2.296875 Z M 5.9375 -2.296875 "/></g></g></g></g></svg>